<svg width="471" height="160" viewBox="0 0 471 160" fill="none" xmlns="http://www.w3.org/2000/svg">
<path fill-rule="evenodd" clip-rule="evenodd" d="M64.476 24.768C67.804 26.752 69.468 28.864 69.468 31.104C69.468 32.384 68.828 34.144 67.548 36.384L47.676 70.464C47.036 71.552 46.012 72.544 44.604 73.44C43.196 74.272 41.788 74.688 40.38 74.688C39.036 74.688 37.724 74.368 36.444 73.728C35.228 73.024 34.364 72.32 33.852 71.616L32.988 70.56L21.5314 50.9516L18.9621 64.7045C18.7781 65.6891 17.4215 65.8218 17.0503 64.8914L14.0514 57.3755C13.7789 56.6927 12.8875 56.5274 12.3884 57.0672L6.92207 62.9787C6.24103 63.7152 5.02064 63.1022 5.20486 62.1162L11.1709 30.1815C11.1933 30.0618 11.2361 29.9511 11.2951 29.8523C11.8229 28.0546 13.4219 26.3598 16.092 24.768C18.524 23.36 20.444 22.656 21.852 22.656C23.26 22.656 24.348 23.104 25.116 24C25.948 24.832 26.812 26.112 27.708 27.84L40.284 52.032L52.86 27.84C53.564 26.624 54.076 25.76 54.396 25.248C54.78 24.672 55.356 24.128 56.124 23.616C56.892 23.04 57.916 22.752 59.196 22.752C60.476 22.752 62.236 23.424 64.476 24.768ZM70.3725 48.96C70.3725 41.28 73.0605 34.944 78.4365 29.952C83.8125 24.96 89.9565 22.464 96.8685 22.464C103.78 22.464 109.892 24.96 115.204 29.952C120.517 34.88 123.173 41.184 123.173 48.864C123.173 54.176 121.797 58.912 119.044 63.072C116.292 67.168 112.932 70.208 108.965 72.192C105.061 74.112 100.996 75.072 96.7725 75.072C92.5485 75.072 88.4525 74.048 84.4845 72C80.5165 69.888 77.1565 66.816 74.4045 62.784C71.7165 58.688 70.3725 54.08 70.3725 48.96ZM90.4365 55.872C92.4845 57.408 94.5645 58.176 96.6765 58.176C98.7885 58.176 100.9 57.376 103.012 55.776C105.124 54.176 106.18 51.808 106.18 48.672C106.18 45.536 105.188 43.2 103.204 41.664C101.22 40.128 99.0765 39.36 96.7725 39.36C94.4685 39.36 92.3245 40.16 90.3405 41.76C88.3565 43.36 87.3645 45.728 87.3645 48.864C87.3645 51.936 88.3885 54.272 90.4365 55.872ZM163.743 24.192C164.959 24.576 165.951 25.248 166.719 26.208C167.551 27.104 167.967 28.576 167.967 30.624C167.967 32.672 167.359 34.912 166.143 37.344C164.927 39.776 163.167 40.992 160.863 40.992C159.711 40.992 158.591 40.736 157.503 40.224C156.479 39.712 155.103 39.456 153.375 39.456C151.647 39.456 150.015 40.064 148.479 41.28C147.007 42.496 146.271 43.968 146.271 45.696V65.856C146.271 67.328 146.207 68.448 146.079 69.216C146.015 69.92 145.727 70.752 145.215 71.712C144.255 73.376 141.759 74.208 137.727 74.208C134.655 74.208 132.447 73.664 131.103 72.576C130.079 71.68 129.503 70.304 129.375 68.448V65.664V31.968C129.375 30.496 129.407 29.408 129.471 28.704C129.599 27.936 129.887 27.104 130.335 26.208C131.231 24.48 133.727 23.616 137.823 23.616C141.663 23.616 144.063 24.352 145.023 25.824C145.727 26.848 146.079 27.904 146.079 28.992C146.399 28.544 146.847 28 147.423 27.36C148.063 26.72 149.375 25.856 151.359 24.768C153.343 23.68 155.071 23.136 156.543 23.136C158.079 23.136 159.359 23.232 160.383 23.424C161.407 23.552 162.527 23.808 163.743 24.192ZM203.176 28.992C203.56 25.408 206.088 23.616 210.76 23.616C213.256 23.616 215.112 23.808 216.328 24.192C217.544 24.576 218.376 25.248 218.824 26.208C219.336 27.168 219.624 28.032 219.688 28.8C219.816 29.504 219.88 30.592 219.88 32.064V65.664C219.88 67.136 219.816 68.256 219.688 69.024C219.624 69.728 219.368 70.56 218.92 71.52C218.024 73.184 215.816 74.016 212.296 74.016C208.84 74.016 206.504 73.6 205.288 72.768C204.136 71.872 203.464 70.592 203.272 68.928C200.904 72.32 196.936 74.016 191.368 74.016C185.864 74.016 180.744 71.488 176.008 66.432C171.272 61.376 168.904 55.52 168.904 48.864C168.904 42.144 171.272 36.288 176.008 31.296C180.808 26.24 186.056 23.712 191.752 23.712C193.928 23.712 195.912 24.096 197.704 24.864C199.496 25.632 200.744 26.368 201.448 27.072C202.152 27.712 202.728 28.352 203.176 28.992ZM185.704 48.96C185.704 51.072 186.536 52.992 188.2 54.72C189.864 56.384 191.88 57.216 194.248 57.216C196.616 57.216 198.568 56.352 200.104 54.624C201.704 52.896 202.504 51.008 202.504 48.96C202.504 46.848 201.736 44.896 200.2 43.104C198.728 41.312 196.712 40.416 194.152 40.416C191.656 40.416 189.608 41.312 188.008 43.104C186.472 44.896 185.704 46.848 185.704 48.96ZM243.371 48.96C243.371 51.648 244.267 53.76 246.059 55.296C247.851 56.768 249.739 57.504 251.723 57.504C253.771 57.504 255.659 56.928 257.387 55.776C259.179 54.56 260.619 53.952 261.707 53.952C263.627 53.952 265.963 55.648 268.715 59.04C270.187 60.896 270.923 62.56 270.923 64.032C270.923 66.464 269.163 68.736 265.643 70.848C261.995 73.408 257.515 74.688 252.203 74.688C246.251 74.688 240.523 72.544 235.019 68.256C232.395 66.208 230.251 63.488 228.587 60.096C226.923 56.64 226.091 52.864 226.091 48.768C226.091 44.608 226.923 40.864 228.587 37.536C230.251 34.144 232.395 31.424 235.019 29.376C240.331 25.152 245.995 23.04 252.011 23.04C254.443 23.04 256.811 23.392 259.115 24.096C261.419 24.736 263.115 25.376 264.203 26.016L265.739 26.976C266.891 27.744 267.787 28.352 268.427 28.8C270.091 30.08 270.923 31.552 270.923 33.216C270.923 34.816 270.251 36.64 268.907 38.688C266.603 42.208 264.395 43.968 262.283 43.968C261.067 43.968 259.339 43.264 257.099 41.856C255.947 40.768 254.283 40.224 252.107 40.224C249.995 40.224 248.011 40.992 246.155 42.528C244.299 44.064 243.371 46.208 243.371 48.96ZM277.125 32.064C277.125 30.592 277.157 29.504 277.221 28.8C277.349 28.032 277.637 27.168 278.085 26.208C278.981 24.544 281.477 23.712 285.573 23.712C288.645 23.712 290.821 24.256 292.101 25.344C293.189 26.24 293.765 27.616 293.829 29.472C293.893 30.112 293.925 31.04 293.925 32.256V65.856C293.925 67.328 293.861 68.448 293.733 69.216C293.669 69.92 293.381 70.752 292.869 71.712C292.037 73.376 289.573 74.208 285.477 74.208C281.445 74.208 278.981 73.344 278.085 71.616C277.637 70.656 277.349 69.824 277.221 69.12C277.157 68.416 277.125 67.296 277.125 65.76V32.064ZM292.869 14.304C292.421 15.2 291.589 15.84 290.373 16.224C289.157 16.608 287.525 16.8 285.477 16.8C283.493 16.8 281.893 16.608 280.677 16.224C279.461 15.84 278.597 15.168 278.085 14.208C277.637 13.248 277.349 12.416 277.221 11.712C277.157 10.944 277.125 9.824 277.125 8.352C277.125 6.88 277.157 5.792 277.221 5.088C277.349 4.32 277.637 3.488 278.085 2.592C278.981 0.864 281.477 0 285.573 0C289.605 0 292.037 0.864 292.869 2.592C293.381 3.552 293.669 4.416 293.733 5.184C293.861 5.888 293.925 6.976 293.925 8.448C293.925 9.92 293.861 11.04 293.733 11.808C293.669 12.512 293.381 13.344 292.869 14.304ZM300.154 48.96C300.154 41.28 302.842 34.944 308.218 29.952C313.594 24.96 319.738 22.464 326.65 22.464C333.562 22.464 339.674 24.96 344.986 29.952C350.298 34.88 352.954 41.184 352.954 48.864C352.954 54.176 351.578 58.912 348.826 63.072C346.074 67.168 342.714 70.208 338.746 72.192C334.842 74.112 330.778 75.072 326.554 75.072C322.33 75.072 318.234 74.048 314.266 72C310.298 69.888 306.938 66.816 304.186 62.784C301.498 58.688 300.154 54.08 300.154 48.96ZM320.218 55.872C322.266 57.408 324.346 58.176 326.458 58.176C328.57 58.176 330.682 57.376 332.794 55.776C334.906 54.176 335.962 51.808 335.962 48.672C335.962 45.536 334.97 43.2 332.986 41.664C331.002 40.128 328.858 39.36 326.554 39.36C324.25 39.36 322.106 40.16 320.122 41.76C318.138 43.36 317.146 45.728 317.146 48.864C317.146 51.936 318.17 54.272 320.218 55.872ZM381.62 74.016C375.156 74.016 369.78 71.584 365.492 66.72C361.268 61.792 359.156 55.808 359.156 48.768V31.968C359.156 30.432 359.188 29.312 359.252 28.608C359.38 27.904 359.668 27.072 360.116 26.112C361.012 24.384 363.508 23.52 367.604 23.52C372.084 23.52 374.708 24.736 375.476 27.168C375.86 28.192 376.052 29.824 376.052 32.064V48.864C376.052 51.488 376.788 53.536 378.26 55.008C379.796 56.48 381.812 57.216 384.308 57.216C386.868 57.216 388.916 56.448 390.452 54.912C392.052 53.376 392.852 51.36 392.852 48.864V31.872C392.852 30.4 392.884 29.312 392.948 28.608C393.076 27.84 393.396 26.976 393.908 26.016C394.74 24.352 397.204 23.52 401.3 23.52C405.332 23.52 407.796 24.384 408.692 26.112C409.14 27.072 409.396 27.936 409.46 28.704C409.588 29.408 409.652 30.496 409.652 31.968V65.952C409.652 67.36 409.588 68.448 409.46 69.216C409.396 69.92 409.108 70.72 408.596 71.616C407.636 73.28 405.172 74.112 401.204 74.112C397.3 74.112 394.9 73.344 394.004 71.808C393.364 70.72 393.044 69.408 393.044 67.872C392.788 68.32 392.212 68.96 391.316 69.792C390.42 70.624 389.556 71.328 388.724 71.904C386.548 73.312 384.18 74.016 381.62 74.016ZM417.759 69.696C416.543 68.928 415.935 67.712 415.935 66.048C415.935 64.384 417.151 61.856 419.583 58.464C420.287 57.376 421.407 56.832 422.943 56.832C424.543 56.832 426.687 57.632 429.375 59.232C432.063 60.768 434.495 61.536 436.671 61.536C440.575 61.536 442.527 60.768 442.527 59.232C442.527 58.016 440.383 57.12 436.095 56.544C432.063 55.968 428.063 54.464 424.095 52.032C422.239 50.88 420.703 49.088 419.487 46.656C418.271 44.16 417.663 41.216 417.663 37.824C417.663 27.712 424.607 22.656 438.495 22.656C443.039 22.656 447.711 23.744 452.511 25.92C454.751 26.944 455.871 28.224 455.871 29.76C455.871 31.296 455.167 33.184 453.759 35.424C452.351 37.664 450.911 38.784 449.439 38.784C448.671 38.784 447.231 38.304 445.119 37.344C443.071 36.384 440.831 35.904 438.399 35.904C434.623 35.904 432.735 36.608 432.735 38.016C432.735 39.936 434.911 41.184 439.263 41.76C443.487 42.208 447.583 43.424 451.551 45.408C453.407 46.304 454.943 47.872 456.159 50.112C457.439 52.288 458.079 55.04 458.079 58.368C458.079 61.696 457.439 64.544 456.159 66.912C454.943 69.216 453.215 70.944 450.975 72.096C446.879 74.08 441.727 75.072 435.519 75.072C429.375 75.072 423.455 73.28 417.759 69.696ZM27.744 107.712C33.44 107.712 38.656 110.24 43.392 115.296C48.192 120.352 50.592 126.24 50.592 132.96C50.592 139.616 48.224 145.472 43.488 150.528C38.752 155.52 33.664 158.016 28.224 158.016C22.784 158.016 18.912 156.48 16.608 153.408C16.096 156.544 13.344 158.112 8.352 158.112C4.32 158.112 1.856 157.248 0.96 155.52C0.512 154.56 0.224 153.728 0.0959998 153.024C0.0319999 152.256 0 151.136 0 149.664V92.352C0 90.88 0.0319999 89.792 0.0959998 89.088C0.224 88.32 0.512 87.488 0.96 86.592C1.856 84.864 4.352 84 8.448 84C12.48 84 14.912 84.864 15.744 86.592C16.256 87.552 16.544 88.416 16.608 89.184C16.736 89.888 16.8 90.976 16.8 92.448V112.416C19.36 109.28 23.008 107.712 27.744 107.712ZM19.296 138.72C20.896 140.448 22.88 141.312 25.248 141.312C27.616 141.312 29.632 140.448 31.296 138.72C32.96 136.992 33.792 135.072 33.792 132.96C33.792 131.495 33.4226 130.123 32.6837 128.843L29.9465 134.187L25.585 125.837L21.3084 134.187L18.3102 128.447C17.4314 129.888 16.992 131.424 16.992 133.056C16.992 135.104 17.76 136.992 19.296 138.72ZM55.3725 132.96C55.3725 125.28 58.0605 118.944 63.4365 113.952C68.8125 108.96 74.9565 106.464 81.8685 106.464C88.7805 106.464 94.8925 108.96 100.204 113.952C105.517 118.88 108.173 125.184 108.173 132.864C108.173 138.176 106.797 142.912 104.044 147.072C101.292 151.168 97.9325 154.208 93.9645 156.192C90.0605 158.112 85.9965 159.072 81.7725 159.072C77.5485 159.072 73.4525 158.048 69.4845 156C65.5165 153.888 62.1565 150.816 59.4045 146.784C56.7165 142.688 55.3725 138.08 55.3725 132.96ZM75.4365 139.872C77.4845 141.408 79.5645 142.176 81.6765 142.176C83.7885 142.176 85.9005 141.376 88.0125 139.776C90.1245 138.176 91.1805 135.808 91.1805 132.672C91.1805 129.536 90.1885 127.2 88.2045 125.664C86.2205 124.128 84.0765 123.36 81.7725 123.36C79.4685 123.36 77.3245 124.16 75.3405 125.76C73.3565 127.36 72.3645 129.728 72.3645 132.864C72.3645 135.936 73.3885 138.272 75.4365 139.872ZM112.935 132.96C112.935 125.28 115.623 118.944 120.999 113.952C126.375 108.96 132.519 106.464 139.431 106.464C146.343 106.464 152.455 108.96 157.767 113.952C163.079 118.88 165.735 125.184 165.735 132.864C165.735 138.176 164.359 142.912 161.607 147.072C158.855 151.168 155.495 154.208 151.527 156.192C147.623 158.112 143.559 159.072 139.335 159.072C135.111 159.072 131.015 158.048 127.047 156C123.079 153.888 119.719 150.816 116.967 146.784C114.279 142.688 112.935 138.08 112.935 132.96ZM132.999 139.872C135.047 141.408 137.127 142.176 139.239 142.176C141.351 142.176 143.463 141.376 145.575 139.776C147.687 138.176 148.743 135.808 148.743 132.672C148.743 129.536 147.751 127.2 145.767 125.664C143.783 124.128 141.639 123.36 139.335 123.36C137.031 123.36 134.887 124.16 132.903 125.76C130.919 127.36 129.927 129.728 129.927 132.864C129.927 135.936 130.951 138.272 132.999 139.872ZM201.697 132.864L214.465 143.424C216.065 144.768 217.057 145.792 217.441 146.496C217.889 147.2 218.113 147.872 218.113 148.512C218.113 150.048 217.121 152.128 215.137 154.752C212.962 157.44 211.042 158.784 209.378 158.784C207.969 158.784 206.018 157.856 203.521 156L202.561 155.328C201.089 154.112 198.818 152 195.745 148.992C192.673 145.92 190.337 143.744 188.738 142.464V149.856C188.738 151.328 188.673 152.448 188.546 153.216C188.481 153.92 188.193 154.752 187.682 155.712C186.85 157.376 184.385 158.208 180.289 158.208C176.257 158.208 173.794 157.344 172.897 155.616C172.449 154.656 172.161 153.824 172.033 153.12C171.969 152.352 171.938 151.232 171.938 149.76V92.256C171.938 90.784 171.969 89.696 172.033 88.992C172.161 88.224 172.449 87.36 172.897 86.4C173.794 84.672 176.289 83.808 180.385 83.808C183.458 83.808 185.633 84.352 186.913 85.44C188.001 86.336 188.577 87.744 188.641 89.664C188.705 90.24 188.738 91.136 188.738 92.352V122.784C189.889 121.824 191.617 120.192 193.921 117.888C196.29 115.584 198.049 113.952 199.201 112.992L200.354 112.224C202.594 110.496 204.514 109.632 206.113 109.632C207.714 109.632 209.538 110.944 211.585 113.568C213.697 116.128 214.753 118.144 214.753 119.616C214.753 121.088 213.57 122.816 211.201 124.8L201.697 132.864ZM285.204 108C289.3 109.792 291.348 112 291.348 114.624C291.348 115.712 290.836 117.472 289.812 119.904C288.788 122.272 287.924 124.352 287.22 126.144L276.66 151.872C275.7 154.688 274.1 156.672 271.86 157.824C270.9 158.272 269.684 158.496 268.212 158.496C266.74 158.496 265.3 157.952 263.892 156.864C262.548 155.712 261.652 154.56 261.204 153.408L260.436 151.776C259.924 150.496 258.036 145.504 254.772 136.8C254.132 138.336 253.172 140.864 251.892 144.384C250.676 147.84 249.876 150.016 249.492 150.912C249.172 151.744 248.948 152.32 248.82 152.64C248.756 152.896 248.5 153.408 248.052 154.176C247.604 154.944 247.092 155.616 246.516 156.192C244.98 157.728 243.22 158.496 241.236 158.496C239.252 158.496 237.588 157.952 236.244 156.864C234.9 155.712 234.004 154.56 233.556 153.408L219.06 118.08C218.42 116.16 218.1 114.912 218.1 114.336C218.1 111.776 219.924 109.76 223.572 108.288C225.62 107.456 227.284 107.04 228.564 107.04C229.844 107.04 230.868 107.328 231.636 107.904C232.468 108.416 233.044 108.96 233.364 109.536C233.684 110.048 233.94 110.592 234.132 111.168C235.22 113.728 237.492 119.744 240.948 129.216L246.612 113.664C246.996 112.384 247.7 111.264 248.724 110.304C250.58 108.448 252.468 107.52 254.388 107.52C256.308 107.52 257.94 108.032 259.284 109.056C260.692 110.08 261.652 111.104 262.164 112.128L262.932 113.76C266.132 122.72 268.02 127.84 268.596 129.12L274.452 113.184C275.988 109.088 278.292 107.04 281.364 107.04C282.58 107.04 283.86 107.36 285.204 108ZM293.31 132.96C293.31 125.28 295.998 118.944 301.374 113.952C306.75 108.96 312.894 106.464 319.806 106.464C326.718 106.464 332.83 108.96 338.142 113.952C343.454 118.88 346.11 125.184 346.11 132.864C346.11 138.176 344.734 142.912 341.982 147.072C339.23 151.168 335.87 154.208 331.902 156.192C327.998 158.112 323.934 159.072 319.71 159.072C315.486 159.072 311.39 158.048 307.422 156C303.454 153.888 300.094 150.816 297.342 146.784C294.654 142.688 293.31 138.08 293.31 132.96ZM313.374 139.872C315.422 141.408 317.502 142.176 319.614 142.176C321.726 142.176 323.838 141.376 325.95 139.776C328.062 138.176 329.118 135.808 329.118 132.672C329.118 129.536 328.126 127.2 326.142 125.664C324.158 124.128 322.014 123.36 319.71 123.36C317.406 123.36 315.262 124.16 313.278 125.76C311.294 127.36 310.302 129.728 310.302 132.864C310.302 135.936 311.326 138.272 313.374 139.872ZM386.681 108.192C387.896 108.576 388.888 109.248 389.656 110.208C390.488 111.104 390.905 112.576 390.905 114.624C390.905 116.672 390.297 118.912 389.081 121.344C387.865 123.776 386.104 124.992 383.801 124.992C382.648 124.992 381.529 124.736 380.44 124.224C379.417 123.712 378.04 123.456 376.312 123.456C374.585 123.456 372.952 124.064 371.417 125.28C369.944 126.496 369.208 127.968 369.208 129.696V149.856C369.208 151.328 369.145 152.448 369.017 153.216C368.952 153.92 368.664 154.752 368.152 155.712C367.193 157.376 364.697 158.208 360.664 158.208C357.592 158.208 355.384 157.664 354.04 156.576C353.017 155.68 352.44 154.304 352.312 152.448V149.664V115.968C352.312 114.496 352.344 113.408 352.409 112.704C352.536 111.936 352.824 111.104 353.272 110.208C354.168 108.48 356.664 107.616 360.76 107.616C364.6 107.616 367 108.352 367.961 109.824C368.664 110.848 369.017 111.904 369.017 112.992C369.336 112.544 369.784 112 370.361 111.36C371 110.72 372.312 109.856 374.297 108.768C376.28 107.68 378.008 107.136 379.48 107.136C381.017 107.136 382.297 107.232 383.32 107.424C384.344 107.552 385.465 107.808 386.681 108.192ZM412.699 114.336C415.707 109.792 419.323 107.52 423.547 107.52C430.076 107.52 434.939 110.304 438.139 115.872C438.844 114.912 439.676 113.92 440.635 112.896C441.659 111.808 443.259 110.656 445.435 109.44C447.612 108.16 449.852 107.52 452.155 107.52C457.276 107.52 461.564 109.504 465.02 113.472C468.475 117.376 470.203 123.872 470.203 132.96V149.76C470.203 151.232 470.139 152.352 470.012 153.12C469.948 153.824 469.659 154.656 469.147 155.616C468.315 157.344 465.852 158.208 461.755 158.208C457.724 158.208 455.259 157.312 454.363 155.52C453.915 154.56 453.628 153.728 453.5 153.024C453.435 152.256 453.404 151.136 453.404 149.664V132.864C453.404 127.296 451.419 124.512 447.452 124.512C445.211 124.512 443.676 125.248 442.844 126.72C442.076 128.192 441.691 130.272 441.691 132.96V149.76C441.691 151.296 441.628 152.416 441.5 153.12C441.435 153.824 441.147 154.656 440.635 155.616C439.74 157.344 437.243 158.208 433.147 158.208C429.116 158.208 426.651 157.312 425.755 155.52C425.307 154.56 425.02 153.728 424.892 153.024C424.827 152.256 424.796 151.136 424.796 149.664V132.864C424.796 127.296 422.811 124.512 418.844 124.512C415.004 124.512 413.083 127.296 413.083 132.864V149.856C413.083 151.328 413.02 152.448 412.892 153.216C412.827 153.92 412.539 154.752 412.027 155.712C411.068 157.376 408.572 158.208 404.539 158.208C400.508 158.208 398.043 157.344 397.147 155.616C396.699 154.656 396.411 153.824 396.284 153.12C396.219 152.416 396.188 151.296 396.188 149.76V115.968C396.188 114.496 396.219 113.408 396.284 112.704C396.411 111.936 396.732 111.104 397.243 110.208C398.203 108.48 400.475 107.616 404.06 107.616C407.643 107.616 409.979 108.192 411.068 109.344C412.155 110.496 412.699 112.16 412.699 114.336Z" fill="#2E81BD"/>
</svg>
